<svg width="12" height="13" viewBox="0 0 12 13" fill="none" xmlns="http://www.w3.org/2000/svg">
<path d="M5.99736 0.385973C6.01851 0.505308 6.42308 2.78538 6.42308 3.65628C6.42308 4.9842 5.68798 5.93127 4.6012 6.31213L4.94231 12.3576C4.96082 12.7055 4.6726 13 4.30769 13H2.61538C2.25313 13 1.96226 12.708 1.98077 12.3576L2.32188 6.31213C1.23245 5.93127 0.5 4.98166 0.5 3.65628C0.5 2.78284 0.904567 0.505308 0.925721 0.385973C1.01034 -0.129456 2.12356 -0.137073 2.19231 0.413902V3.99905C2.22668 4.08538 2.59159 4.0803 2.61538 3.99905C2.6524 3.35667 2.82428 0.464683 2.82692 0.398668C2.91418 -0.129456 4.00889 -0.129456 4.09351 0.398668C4.0988 0.467223 4.26803 3.35667 4.30505 3.99905C4.32885 4.0803 4.69639 4.08538 4.72813 3.99905V0.413902C4.79688 -0.134534 5.91274 -0.129456 5.99736 0.385973ZM9.14928 7.64005L8.75264 12.3398C8.72091 12.6953 9.01442 13 9.38462 13H10.8654C11.2171 13 11.5 12.7283 11.5 12.3906V0.60941C11.5 0.274254 11.2171 3.62896e-05 10.8654 3.62896e-05C8.68389 3.62896e-05 5.01106 4.53225 9.14928 7.64005Z" fill="white"/>
</svg>
