<svg width="13" height="13" viewBox="0 0 13 13" fill="none" xmlns="http://www.w3.org/2000/svg">
<path d="M9.58765 4.87486H6.7572V6.29686C6.7572 7.30495 6.15573 8.12514 5.41646 8.12514C4.6772 8.12514 4.07573 7.30495 4.07573 6.29686V3.2091L2.8672 4.19941C2.50781 4.49143 2.28808 5.02214 2.28808 5.59094V6.79202L0.798367 7.96516C0.51346 8.18862 0.414766 8.68632 0.580497 9.07483L2.07021 12.5943C2.23407 12.9828 2.59905 13.1148 2.88396 12.8914L4.80941 11.3754H7.35309C8.01042 11.3754 8.54485 10.6466 8.54485 9.75027H8.8428C9.17239 9.75027 9.43868 9.38716 9.43868 8.93771V7.31257H9.58765C9.83531 7.31257 10.0346 7.04087 10.0346 6.70314V5.48429C10.0346 5.14656 9.83531 4.87486 9.58765 4.87486ZM12.338 3.92517L10.8483 0.405735C10.6844 0.0172256 10.3195 -0.114817 10.0346 0.10864L8.10911 1.62459H6.20601C5.98255 1.62459 5.76468 1.71092 5.57475 1.8709L4.95093 2.40161C4.77589 2.54888 4.67161 2.81043 4.67161 3.08975V6.29686C4.67161 6.85804 5.00493 7.31257 5.41646 7.31257C5.828 7.31257 6.16132 6.85804 6.16132 6.29686V4.06229H9.58765C10.1631 4.06229 10.6304 4.69965 10.6304 5.48429V6.20798L12.1202 5.03484C12.4051 4.80884 12.5019 4.31368 12.338 3.92517Z" fill="white"/>
</svg>
